HIERARCHY
ROOT hip
{
  OFFSET 0 0 0
  CHANNELS 6 Xposition Yposition Zposition Zrotation Yrotation Xrotation
  JOINT abdomen
  {
    OFFSET 0 20.6881 -0.73152
    CHANNELS 3 Zrotation Xrotation Yrotation
    JOINT chest
    {
      OFFSET 0 11.7043 -0.48768
      CHANNELS 3 Zrotation Xrotation Yrotation
      JOINT neck
      {
        OFFSET 0 22.1894 -2.19456
        CHANNELS 3 Zrotation Xrotation Yrotation
        JOINT head
        {
          OFFSET -0.24384 7.07133 1.2192
          CHANNELS 3 Zrotation Xrotation Yrotation
          JOINT leftEye
          {
            OFFSET 4.14528 8.04674 8.04672
            CHANNELS 3 Zrotation Xrotation Yrotation
            End Site
            {
              OFFSET 1 0 0
            }
          }
          JOINT rightEye
          {
            OFFSET -3.6576 8.04674 8.04672
            CHANNELS 3 Zrotation Xrotation Yrotation
            End Site
            {
              OFFSET 1 0 0
            }
          }
        }
      }
      JOINT rCollar
      {
        OFFSET -2.68224 19.2634 -4.8768
        CHANNELS 3 Zrotation Xrotation Yrotation
        JOINT rShldr
        {
          OFFSET -8.77824 -1.95073 1.46304
          CHANNELS 3 Zrotation Xrotation Yrotation
          JOINT rForeArm
          {
            OFFSET -28.1742 -1.7115 0.48768
            CHANNELS 3 Zrotation Xrotation Yrotation
            JOINT rHand
            {
              OFFSET -22.5879 0.773209 7.07136
              CHANNELS 3 Zrotation Xrotation Yrotation
              JOINT rThumb1
              {
                OFFSET -1.2192 -0.487915 3.41376
                CHANNELS 3 Zrotation Xrotation Yrotation
                JOINT rThumb2
                {
                  OFFSET -3.37035 -0.52449 3.41376
                  CHANNELS 3 Zrotation Xrotation Yrotation
                  End Site
                  {
                    OFFSET -1.78271 -1.18214 1.43049
                  }
                }
              }
              JOINT rIndex1
              {
                OFFSET -7.75947 0.938293 5.60832
                CHANNELS 3 Zrotation Xrotation Yrotation
                JOINT rIndex2
                {
                  OFFSET -2.54057 -0.884171 1.56538
                  CHANNELS 3 Zrotation Xrotation Yrotation
                  End Site
                  {
                    OFFSET -1.62519 -0.234802 1.16502
                  }
                }
              }
              JOINT rMid1
              {
                OFFSET -8.24714 1.18213 3.41376
                CHANNELS 3 Zrotation Xrotation Yrotation
                JOINT rMid2
                {
                  OFFSET -3.10165 -0.590103 1.0647
                  CHANNELS 3 Zrotation Xrotation Yrotation
                  End Site
                  {
                    OFFSET -2.48547 -0.328903 0.83742
                  }
                }
              }
              JOINT rRing1
              {
                OFFSET -8.82822 0.546677 1.51678
                CHANNELS 3 Zrotation Xrotation Yrotation
                JOINT rRing2
                {
                  OFFSET -2.60934 -0.819778 -0.0198488
                  CHANNELS 3 Zrotation Xrotation Yrotation
                  End Site
                  {
                    OFFSET -2.33842 -0.294052 0.168128
                  }
                }
              }
              JOINT rPinky1
              {
                OFFSET -8.27202 -0.0477905 -0.4584
                CHANNELS 3 Zrotation Xrotation Yrotation
                JOINT rPinky2
                {
                  OFFSET -1.82734 -0.647385 -0.700984
                  CHANNELS 3 Zrotation Xrotation Yrotation
                  End Site
                  {
                    OFFSET -1.69225 -0.51767 -0.607171
                  }
                }
              }
            }
          }
        }
      }
      JOINT lCollar
      {
        OFFSET 2.68224 19.2634 -4.8768
        CHANNELS 3 Zrotation Xrotation Yrotation
        JOINT lShldr
        {
          OFFSET 8.77824 -1.95073 1.46304
          CHANNELS 3 Zrotation Xrotation Yrotation
          JOINT lForeArm
          {
            OFFSET 28.1742 -1.7115 0.48768
            CHANNELS 3 Zrotation Xrotation Yrotation
            JOINT lHand
            {
              OFFSET 22.5879 0.773209 7.07136
              CHANNELS 3 Zrotation Xrotation Yrotation
              JOINT lThumb1
              {
                OFFSET 1.2192 -0.487915 3.41376
                CHANNELS 3 Zrotation Xrotation Yrotation
                JOINT lThumb2
                {
                  OFFSET 3.37035 -0.52449 3.41376
                  CHANNELS 3 Zrotation Xrotation Yrotation
                  End Site
                  {
                    OFFSET 1.78271 -1.18214 1.43049
                  }
                }
              }
              JOINT lIndex1
              {
                OFFSET 7.75947 0.938293 5.60832
                CHANNELS 3 Zrotation Xrotation Yrotation
                JOINT lIndex2
                {
                  OFFSET 2.54057 -0.884171 1.56538
                  CHANNELS 3 Zrotation Xrotation Yrotation
                  End Site
                  {
                    OFFSET 1.62519 -0.234802 1.16502
                  }
                }
              }
              JOINT lMid1
              {
                OFFSET 8.24714 1.18213 3.41376
                CHANNELS 3 Zrotation Xrotation Yrotation
                JOINT lMid2
                {
                  OFFSET 3.10165 -0.590103 1.0647
                  CHANNELS 3 Zrotation Xrotation Yrotation
                  End Site
                  {
                    OFFSET 2.48547 -0.328903 0.83742
                  }
                }
              }
              JOINT lRing1
              {
                OFFSET 8.82822 0.546677 1.51678
                CHANNELS 3 Zrotation Xrotation Yrotation
                JOINT lRing2
                {
                  OFFSET 2.60934 -0.819778 -0.0198488
                  CHANNELS 3 Zrotation Xrotation Yrotation
                  End Site
                  {
                    OFFSET 2.33842 -0.294052 0.168128
                  }
                }
              }
              JOINT lPinky1
              {
                OFFSET 8.27202 -0.0477905 -0.4584
                CHANNELS 3 Zrotation Xrotation Yrotation
                JOINT lPinky2
                {
                  OFFSET 1.82734 -0.647385 -0.700984
                  CHANNELS 3 Zrotation Xrotation Yrotation
                  End Site
                  {
                    OFFSET 1.69225 -0.51767 -0.607171
                  }
                }
              }
            }
          }
        }
      }
    }
  }
  JOINT rButtock
  {
    OFFSET -8.77824 4.35084 1.2192
    CHANNELS 3 Zrotation Xrotation Yrotation
    JOINT rThigh
    {
      OFFSET 0 -1.70687 -2.19456
      CHANNELS 3 Zrotation Xrotation Yrotation
      JOINT rShin
      {
        OFFSET 0 -36.8199 0.73152
        CHANNELS 3 Zrotation Xrotation Yrotation
        JOINT rFoot
        {
          OFFSET 0.73152 -45.1104 -5.12064
          CHANNELS 3 Zrotation Xrotation Yrotation
          End Site
          {
            OFFSET -1.1221 -3.69964 12.103
          }
        }
      }
    }
  }
  JOINT lButtock
  {
    OFFSET 8.77824 4.35084 1.2192
    CHANNELS 3 Zrotation Xrotation Yrotation
    JOINT lThigh
    {
      OFFSET 0 -1.70687 -2.19456
      CHANNELS 3 Zrotation Xrotation Yrotation
      JOINT lShin
      {
        OFFSET 0 -36.8199 0.73152
        CHANNELS 3 Zrotation Xrotation Yrotation
        JOINT lFoot
        {
          OFFSET -0.73152 -45.1104 -5.12064
          CHANNELS 3 Zrotation Xrotation Yrotation
          End Site
          {
            OFFSET 1.1221 -3.69964 12.103
          }
        }
      }
    }
  }
}
MOTION
Frames:	4
Frame Time:	0.00833333
7.1814 81.706 -14.0148 -5.62801 1.228197 -4.600905 9.891747 6.650245 86.644448 -0.290948 -6.828037 -106.197303 -6.65496 13.304856 -77.935918 25.216608 -10.710341 96.196638 -0.000374 0.0 -0.00118 -0.000106 -0.0 0.004437 -9.651923 34.836142 11.199322 60.573112 12.106107 77.007451 -109.817632 -23.152259 81.488906 99.52442 -71.281225 83.114616 113.262439 -50.39883 54.830223 -87.949653 35.721708 43.175384 -150.885126 -16.291732 120.978295 82.496982 -69.227014 30.823784 134.724918 -79.92415 103.584319 2.472483 1.609506 0.418572 0.004563 1.770653 0.554867 6.024048 33.620441 5.567038 12.253052 41.424876 10.279686 -138.428814 -13.809759 -135.209822 155.8095 -5.555344 -162.266987 -152.42245 40.512556 91.514526 -7.965503 23.62972 -51.283953 14.517818 -38.238361 9.703351 0.441929 0.435172 -0.068975 26.972508 22.146436 -24.058571 -159.642564 -69.97355 -102.397386 60.503955 55.500636 -49.120114 0.571124 1.648408 -0.321481 25.196511 49.215211 -20.686746 71.925108 72.974035 -89.771867 -5.862074 -0.004122 4.469156 4.660212 -10.866019 4.366475 159.332123 55.59285 150.052024 179.998746 75.750537 -0.0 162.748655 52.55384 13.64087 -9.335894 41.079687 -38.858452 98.198699 10.445805 -31.018518 -0.0 0.000621 0.001231 11.339407 -2.843267 94.011105 37.412936 -0.406921 56.099 -89.116402 -27.242439 -164.312235
7.3176000000000005 81.4465 -13.8733 -5.490028 1.77305 -4.714077 12.316209 8.40811 -1.313182 4.34801 -2.691612 -17.060848 13.418414 11.134605 88.297014 -25.951265 24.807004 -67.134892 0.001767 -0.0 -0.000351 -0.003899 -0.0 0.000369 -3.767986 17.921024 4.640898 81.572105 13.332694 55.311091 -46.611612 15.275492 116.079545 7.176616 -23.246005 1.795754 -174.724627 -12.381839 89.839929 -14.625519 -46.019289 2.08614 -151.353966 -17.157807 121.133981 -47.4746 55.175108 32.824121 68.984619 -80.153781 40.579488 10.116127 -21.572282 -1.363392 -145.120404 2.056028 -179.77402 -148.228033 -43.205296 -170.549905 -157.332854 57.246411 -150.509904 -94.765556 -50.437463 -93.146349 -3.603376 -31.140508 6.04335 105.24059 0.73445 -96.45133 168.078326 -55.057371 117.168831 13.677737 -48.98347 12.929536 9.318977 8.866421 -2.132688 122.014456 -17.805693 -107.262113 -37.214759 -57.918176 0.64498 87.103222 49.746011 -72.757174 -23.90271 -61.334033 -1.398273 129.320991 52.055566 -118.341674 71.924845 72.973661 -89.772072 159.838175 0.076127 -176.234326 -44.737535 86.377973 5.372164 146.98325 7.213922 141.515122 -179.970026 75.749981 -0.024662 162.62611 52.21122 -0.0 -25.59003 43.407641 -72.446175 -6.973176 0.018495 95.241179 0.044944 -0.000226 0.033708 13.369206 -3.042529 -87.332441 -26.005782 -7.125161 65.546243 109.280885 18.43367 -7.96857
7.4827 81.2011 -13.7092 -5.213105 2.39517 -4.825034 9.844931 5.852514 82.048658 0.350411 -6.54363 -98.972217 11.300202 7.084953 62.664921 -28.543109 12.485789 -44.389198 -0.005046 0.0 -0.000823 0.00062 -0.0 -0.001534 -8.482639 32.16094 9.929837 -106.681481 -17.870764 107.08197 14.918827 25.558383 -130.051516 172.479846 -12.519094 144.230063 -176.927868 -14.532387 89.658648 -39.414133 -22.529677 2.808089 -151.096469 -16.679032 121.048397 -8.096662 31.851016 0.162964 -159.36558 -2.68528 142.597978 -2.230604 14.694147 3.038972 -0.020876 -1.724265 -0.542476 10.454819 0.217474 -0.042855 -43.364439 -47.545854 -42.162528 -79.981046 -53.943232 -80.465107 28.701763 57.498717 -31.080369 -123.732381 -9.819963 -178.494317 -0.46361 64.650487 -64.289785 14.193069 -43.648927 11.286134 -88.928519 -50.830736 -37.599638 33.242109 5.252221 7.992668 -175.210403 -62.515225 -113.811888 166.807457 -32.614224 -116.467398 160.098242 -4.901399 -142.967989 18.267208 42.120203 -14.879423 70.64185 72.96564 -88.425465 158.75959 -27.429502 -179.986285 87.576398 -50.207835 85.929425 146.17219 10.864433 142.436682 -0.004883 -0.001101 -0.002442 -13.226504 -23.852798 125.799611 37.403072 -23.740644 -133.35632 -6.637001 13.546475 8.815281 0.007171 0.000413 0.007171 12.0199 -4.524376 180.0 10.648534 -27.929895 143.78374 149.148604 22.221727 -43.237983
7.6574 80.9748 -13.552900000000001 -4.905024 3.116831 -4.845097 9.768381 4.665394 96.010619 -0.474912 -6.223421 -111.482218 -5.811147 18.196456 -106.400509 30.26022 0.681095 118.618099 0.000399 -0.0 -0.00142 0.000399 -0.0 -0.00142 3.772203 -33.701825 -6.515282 -80.064594 -14.038948 -178.948767 -16.732685 55.574543 -107.921912 163.525505 -34.154461 140.107592 -93.74332 37.96452 53.549001 171.405033 -43.8383 74.423171 1.338572 -2.205089 -0.740266 -157.996589 -9.013205 110.118636 -167.298536 -27.767635 145.259369 2.581024 1.621131 0.572385 -31.710632 -66.108011 -46.286118 14.552519 0.559499 -3.262816 -23.840066 -36.7263 -22.933859 -75.512905 -54.582001 -75.895325 -4.238545 -44.742787 8.648164 99.455389 0.611332 -107.603224 -110.205684 -22.803738 171.696269 28.881102 13.912005 -8.619985 7.75993 7.438483 -1.682201 -57.316466 -68.788373 5.66568 -24.075469 -42.306552 5.556278 84.350049 49.022317 -69.631985 36.037887 51.722182 -29.833754 34.333197 55.121279 -29.132885 74.840662 72.959974 -92.828362 73.242342 -82.411111 90.336434 146.225767 15.470455 142.747648 14.538552 -29.802423 16.53001 -179.994605 75.749684 -0.003691 161.081173 51.400238 14.760224 3.259099 43.601455 47.818946 -144.856629 -37.50679 81.497601 179.988784 75.749684 0.009228 -143.155925 68.7153 -88.120471 -30.477886 7.004756 -7.82299 36.715597 19.613382 62.944092
